<svg viewBox="0 0 200 200" fill="none" xmlns="http://www.w3.org/2000/svg">
<path fill-rule="evenodd" clip-rule="evenodd" d="M0 38C0 17.0132 17.0132 0 38 0H162C182.987 0 200 17.0132 200 38V162C200 182.987 182.987 200 162 200H38C17.0132 200 0 182.987 0 162V38ZM141.121 116.449C141.121 116.449 142.617 98.8785 125.234 98.8785C107.85 98.8785 108.598 116.449 108.598 116.449L108.037 170.841H107.664H107.29H78.1308V74.7664H107.664V87.4777C108.819 85.7764 112.465 80.6306 115.888 78.1308C123.095 72.8682 129.217 72.4732 138.131 72.8972C147.146 73.326 153.146 74.5011 160 80.3738C168.298 87.4835 170.841 98.5047 170.841 106.168V170.654H141.121V116.449ZM44.8598 62.0561C54.3571 62.0561 62.0561 54.3571 62.0561 44.8598C62.0561 35.3626 54.3571 27.6636 44.8598 27.6636C35.3626 27.6636 27.6636 35.3626 27.6636 44.8598C27.6636 54.3571 35.3626 62.0561 44.8598 62.0561ZM29.5327 74.7664H59.4392V170.841H29.5327V74.7664Z" fill="white"/>
</svg>
