<svg viewBox="0 0 200 200" fill="none" xmlns="http://www.w3.org/2000/svg">
<path d="M95 2.88673C98.094 1.10042 101.906 1.10042 105 2.88673L181.603 47.1132C184.697 48.8996 186.603 52.2008 186.603 55.7735V77C186.603 78.6569 185.259 80 183.603 80H167.952C166.295 80 164.952 78.6569 164.952 77V68.2735C164.952 64.7008 163.046 61.3996 159.952 59.6132L105 27.8867C101.906 26.1004 98.094 26.1004 95 27.8867L40.0481 59.6132C36.9541 61.3996 35.0481 64.7008 35.0481 68.2735V131.726C35.0481 135.299 36.9541 138.6 40.0481 140.387L95 172.113C98.094 173.9 101.906 173.9 105 172.113L159.952 140.387C163.046 138.6 164.952 135.299 164.952 131.726V123C164.952 121.343 166.295 120 167.952 120H183.603C185.259 120 186.603 121.343 186.603 123V144.226C186.603 147.799 184.697 151.1 181.603 152.887L105 197.113C101.906 198.9 98.094 198.9 95 197.113L18.3975 152.887C15.3035 151.1 13.3975 147.799 13.3975 144.226V55.7735C13.3975 52.2008 15.3035 48.8996 18.3975 47.1132L95 2.88673Z" fill="white"/>
<path d="M73.9171 138.727C71.6938 138.727 69.7375 137.259 69.1163 135.124L50.8617 72.3971C49.9306 69.1978 52.3304 66 55.6625 66H64.4452C66.7744 66 68.795 67.6083 69.3177 69.8781L79.3289 113.357C79.3692 113.532 79.5249 113.656 79.7044 113.656C79.8794 113.656 80.0325 113.538 80.077 113.369L91.5563 69.7281C92.1342 67.5312 94.1203 66 96.3918 66H104.518C106.791 66 108.777 67.5326 109.354 69.7307L120.835 113.475C120.88 113.645 121.033 113.763 121.208 113.763C121.387 113.763 121.543 113.639 121.583 113.464L131.629 69.877C132.152 67.6077 134.173 66 136.501 66H145.253C148.584 66 150.983 69.1961 150.054 72.395L131.83 135.122C131.21 137.258 129.253 138.727 127.029 138.727H117.574C115.361 138.727 113.412 137.273 112.781 135.151L100.821 94.8945C100.773 94.7329 100.624 94.6222 100.456 94.6222C100.287 94.6222 100.139 94.7329 100.091 94.8945L88.1306 135.151C87.5004 137.273 85.5506 138.727 83.3377 138.727H73.9171Z" fill="white"/>
</svg>
